<svg width="341" height="162" viewBox="0 0 341 162" fill="none" xmlns="http://www.w3.org/2000/svg">
<g clip-path="url(#clip0_34_3114)">
<path d="M26.5999 161.56C8.80917 141.586 0 114.839 0 86.1761C0 57.5132 8.98153 29.033 26.5999 7.4948L37.9991 12.0104C21.0749 31.984 12.9552 58.2158 13.1276 86.1761C13.2999 113.448 21.7644 138.804 38.3485 157.564L26.6045 161.56H26.5999Z" fill="#FEFBFB"/>
<path d="M148.559 133.74C147.208 131.707 146.378 128.967 146.066 125.524L144.389 108.557C139.931 106.361 136.148 100.224 135.31 95.479C134.355 90.0734 136.973 84.3914 141.739 81.7682L137.35 37.4131C137.038 33.9702 137.504 30.8411 138.753 28.0212C139.996 25.2059 141.864 23.2245 144.357 22.0722V21.6038H120.855L99.2208 105.021L78.6722 21.5991H54.0802V22.0675C56.6749 23.2151 58.5942 25.1966 59.838 28.0165C61.0819 30.8317 61.5477 33.914 61.2402 37.2491L52.5242 121.922C52.1096 126.203 51.2012 129.697 49.799 132.41C48.3968 135.122 46.5055 137.159 44.1157 138.513V138.982H62.6378V138.513C60.6673 137.473 59.0321 135.515 57.7371 132.644C56.4374 129.777 55.9995 126.203 56.4141 121.922L65.7543 31.9278L92.6803 140.546H93.4582L122.098 32.5555L131.28 125.524C131.592 128.967 131.019 131.73 129.566 133.82C128.113 135.909 126.505 137.473 124.74 138.513V138.982H153.692V138.513C151.615 137.366 149.905 135.773 148.554 133.74H148.559Z" fill="#FEFBFB"/>
<path d="M226.989 51.2644C227.785 55.602 231.079 59.0168 234.861 61.0076C239.161 63.2701 244.225 64.0196 248.977 63.0031C251.539 62.4551 254.026 61.2559 255.764 59.2417C257.334 57.4242 258.284 55.1711 258.778 52.8289C259.314 50.2994 259.416 47.6809 259.398 45.0999C259.379 42.1067 259.118 39.1228 258.662 36.1671C257.781 30.4335 256.067 24.8078 253.575 19.5708C251.436 15.0739 248.59 10.8347 244.914 7.462C237.647 0.791638 226.621 -2.23907 217.332 1.85965C213.032 3.75677 209.799 7.31679 208.061 11.6731C206.324 16.0295 206.249 20.6763 207.06 25.1263C207.255 26.199 207.516 27.2529 207.833 28.2975L210.167 26.9297C206.836 22.6109 202.555 19.0368 197.799 16.4089C193.042 13.7811 187.499 11.6872 182.002 12.179C179.3 12.4226 176.747 13.3033 174.623 15.0317C172.778 16.5307 171.516 18.6292 170.77 20.8683C169.21 25.5713 169.96 30.8411 171.45 35.4551C173.36 41.3666 176.808 46.7019 181.28 50.9787L182.975 48.7724C177.082 45.8307 170.775 43.7602 164.281 42.6688C161.001 42.1161 157.652 41.7273 154.326 41.7366C151.177 41.746 147.916 42.2238 145.163 43.8586C140.728 46.4865 138.058 51.7188 138.389 56.8714C138.757 62.6143 142.456 67.5187 146.84 70.9335C152.621 75.4398 159.772 77.6554 166.708 79.6509L167.081 76.8919C160.084 76.3204 152.793 75.763 146.024 78.0817C140.36 80.021 135.357 83.9932 133.88 90.0546C132.496 95.7366 134.332 101.672 138.296 105.864C142.26 110.056 148.312 112.633 154.186 113.289C161.658 114.127 169.307 112.005 175.755 108.258C177.134 107.457 176.211 105.288 174.679 105.691C168.334 107.349 162.091 110.511 157.643 115.443C155.556 117.757 153.851 120.469 152.924 123.463C152.052 126.269 151.922 129.257 152.397 132.147C153.399 138.209 157.47 143.291 163.135 145.558C169.634 148.163 177.231 146.935 183.381 143.942C190.774 140.34 196.238 133.909 201.409 127.693L199.434 125.706C195.288 130.845 194.263 137.661 196.177 143.947C198.185 150.542 203.011 155.854 209.179 158.787C216.037 162.052 223.877 162.67 231.293 161.368C234.969 160.721 238.551 159.545 241.905 157.901C245.259 156.257 248.609 153.995 251.031 151.02C253.761 147.671 255.075 143.624 255.648 139.38C256.272 134.742 256.216 130.049 255.871 125.393C255.526 120.736 254.921 116.01 254.38 111.326L252.717 96.9171C252.452 94.6358 252.298 92.3078 251.897 90.05C251.497 87.7922 250.006 86.6351 247.947 86.1573C243.456 85.1221 238.756 84.635 234.177 84.2274C225.069 83.4171 215.883 83.5248 206.799 84.546C204.456 84.8083 202.117 85.1268 199.792 85.5109C198.083 85.792 196.285 86.2229 194.934 87.3799C193.583 88.5369 193.173 90.4387 193.969 92.0548C194.813 93.7646 196.606 94.8138 198.204 95.6992C206.147 100.112 214.341 104.051 222.717 107.55C224.753 108.398 226.798 109.223 228.857 110.019C229.56 110.291 230.389 109.719 230.576 109.035C230.795 108.244 230.305 107.578 229.597 107.307C221.687 104.248 213.94 100.777 206.398 96.8983C204.539 95.9427 202.695 94.9637 200.859 93.9566C199.457 93.1884 197.682 92.4623 196.681 91.1461C194.743 88.5978 201.665 88.0264 202.834 87.8577C211.364 86.6164 220.034 86.237 228.642 86.6492C232.882 86.8553 237.121 87.2488 241.323 87.8577C243.354 88.1528 245.445 88.4058 247.435 88.9117C248.124 89.0897 248.739 89.3005 249.009 90.0078C249.331 90.8369 249.331 91.83 249.428 92.7012C250.458 101.601 251.534 110.497 252.508 119.401C252.988 123.772 253.374 128.166 253.323 132.569C253.276 136.602 252.96 140.757 251.557 144.565C249.06 151.348 242.124 155.353 235.588 157.414C229.052 159.475 222.013 159.85 215.422 158.098C209.291 156.468 203.785 152.898 200.622 147.273C197.929 142.481 197.072 136.466 199.247 131.304C199.792 130.016 200.529 128.775 201.409 127.688C201.884 127.098 201.982 126.278 201.409 125.702C200.91 125.201 199.918 125.116 199.434 125.702C195.111 130.901 190.671 136.218 184.909 139.867C179.654 143.193 173.02 145.08 166.838 143.745C161.463 142.588 157.167 138.855 155.584 133.515C154 128.175 155.309 122.919 158.579 118.666C162.683 113.335 169.047 110.061 175.424 108.398L174.348 105.831C164.672 111.457 151.172 113.106 141.999 105.489C138.072 102.229 135.683 97.4464 136.298 92.2609C136.926 86.963 140.84 83.122 145.61 81.2155C152.434 78.4892 159.925 79.1169 167.076 79.6978C168.679 79.8289 168.925 77.3603 167.449 76.9387C161.677 75.2805 155.826 73.5052 150.711 70.2496C146.486 67.5609 142.605 63.5886 141.44 58.5531C140.462 54.3373 142.083 49.6249 145.517 46.983C147.65 45.3435 150.315 44.7158 152.952 44.58C155.975 44.4254 159.054 44.7064 162.045 45.1421C168.814 46.1211 175.438 48.1353 181.564 51.1941C182.924 51.8733 184.466 50.1449 183.26 48.9878C179.645 45.5262 176.682 41.3338 174.846 36.6495C173.248 32.5742 172.144 27.8947 172.978 23.5149C173.346 21.5756 174.073 19.6551 175.396 18.1655C176.919 16.4511 178.964 15.4814 181.196 15.088C185.985 14.2495 191.072 16.081 195.278 18.2405C200.3 20.8215 204.735 24.4283 208.192 28.9159C209.072 30.0541 210.912 28.8128 210.526 27.5481C208.276 20.1329 209.03 10.7082 215.85 5.90683C223.141 0.777585 233.51 2.48733 240.419 7.41048C248.222 12.9707 252.601 22.4375 254.87 31.5203C256.183 36.7854 256.752 42.2144 256.551 47.6435C256.407 51.6344 255.708 56.3843 252.102 58.7592C248.436 61.1763 243.331 61.0638 239.273 59.8178C235.681 58.7123 232.178 56.4592 230.464 52.9976C230.077 52.2153 229.835 51.3768 229.677 50.5149C229.537 49.7701 228.642 49.3439 227.958 49.5312C227.18 49.7467 226.844 50.5102 226.979 51.2597L226.989 51.2644Z" fill="#FEFBFB"/>
<path d="M206.03 86.6398C208.112 83.2063 207.353 78.7937 205.075 75.6553C202.681 72.3622 199.131 70.2309 195.586 68.3853L194.51 70.9523C199.811 72.484 205.862 71.9594 210.698 69.2191C213.172 67.8185 215.03 65.6966 215.799 62.9188C216.53 60.291 216.353 57.4757 215.957 54.8104C215.473 51.5408 214.369 48.3836 212.832 45.4653C212.077 44.0319 209.892 45.0297 210.279 46.5474C211.131 49.9247 212.468 53.1896 214.201 56.2063C215.934 59.2229 218.086 62.1272 220.597 64.5396C223.108 66.9519 227.058 68.8725 230.068 66.2446C232.155 64.4225 232.29 61.0826 231.764 58.5531C231.214 55.8971 230.208 53.3629 229.597 50.7257C229.425 49.9856 228.586 49.55 227.878 49.742C227.124 49.9481 226.732 50.7304 226.9 51.4705C227.399 53.6253 228.158 55.7191 228.722 57.8598C228.852 58.3564 228.978 58.8529 229.08 59.3588C229.122 59.5743 229.159 59.7897 229.197 60.0052C229.132 59.6071 229.187 59.9115 229.187 59.9958C229.192 60.1692 229.211 60.3472 229.215 60.5205C229.22 60.7734 229.22 61.0264 229.215 61.2793C229.211 61.4339 229.201 61.5838 229.187 61.7384C229.187 61.729 229.127 62.2209 229.164 61.9726C229.066 62.6331 228.908 63.1577 228.652 63.598C228.451 63.94 228.186 64.221 227.822 64.4225C227.301 64.7176 226.714 64.7597 226.187 64.6707C224.832 64.4365 223.616 63.5465 222.638 62.6143C220.397 60.4924 218.492 57.9441 216.908 55.2975C215.142 52.3324 213.814 49.1518 212.967 45.8026L210.414 46.8846C211.616 49.1612 212.487 51.5829 213.004 54.1077C213.46 56.3468 213.735 58.8154 213.344 61.0779C212.953 63.3404 211.881 65.1391 209.957 66.3852C208.033 67.6312 205.592 68.4462 203.24 68.8022C200.58 69.2004 197.831 68.9896 195.246 68.2448C193.75 67.8139 192.74 70.0717 194.17 70.8118C197.212 72.395 200.379 74.1563 202.532 76.9107C204.386 79.2856 205.206 82.588 203.608 85.2205C202.667 86.771 205.084 88.181 206.021 86.6398H206.03Z" fill="#FEFBFB"/>
<path d="M266.758 156.491C283.342 137.731 291.807 112.375 291.979 85.1034C292.151 57.1384 284.032 30.9113 267.103 10.9377L278.502 6.4221C296.12 27.9603 305.102 55.9252 305.102 85.1034C305.102 114.282 296.293 140.513 278.502 160.487L266.758 156.491Z" fill="#FEFBFB"/>
<path d="M305.95 18.5356C305.95 14.6242 308.325 11.7809 312.308 11.7809C315.639 11.7809 317.941 13.8138 318.481 17.0507H316.855C316.371 14.643 314.703 13.233 312.308 13.233C309.411 13.233 307.594 15.2472 307.594 18.5403C307.594 21.8333 309.448 23.9225 312.141 23.9225C314.591 23.9225 316.142 22.2502 316.142 19.8612H311.726V18.5075H316.329C317.694 18.5075 318.425 19.2054 318.425 20.4842V25.1685H317.023V20.6716H316.986C316.743 23.5711 315.038 25.3746 312.141 25.3746C308.53 25.3746 305.95 22.7045 305.95 18.5449V18.5356Z" fill="#FEFBFB"/>
<path d="M321.257 25.1591V11.9917H325.879C329.638 11.9917 332.261 14.6617 332.261 18.5028C332.261 22.3439 329.643 25.1638 325.879 25.1638H321.257V25.1591ZM322.827 23.7117H325.972C328.683 23.7117 330.593 21.5663 330.593 18.5028C330.593 15.6641 328.683 13.4438 325.972 13.4438H322.827V23.7163V23.7117Z" fill="#FEFBFB"/>
<path d="M328.888 7.06384H308.391C302.087 7.06384 296.977 12.202 296.977 18.5402C296.977 24.8785 302.087 30.0167 308.391 30.0167H328.888C335.191 30.0167 340.301 24.8785 340.301 18.5402C340.301 12.202 335.191 7.06384 328.888 7.06384Z" stroke="#FEFBFB" stroke-width="3" stroke-miterlimit="10"/>
</g>
<defs>
<clipPath id="clip0_34_3114">
<rect width="341" height="162" fill="white"/>
</clipPath>
</defs>
</svg>
